<?xml version="1.0" encoding="UTF-8" standalone="no"?>
<!-- Generator: Adobe Illustrator 20.0.0, SVG Export Plug-In . SVG Version: 6.00 Build 0)  -->

<svg
   xmlns:dc="http://purl.org/dc/elements/1.1/"
   xmlns:cc="http://creativecommons.org/ns#"
   xmlns:rdf="http://www.w3.org/1999/02/22-rdf-syntax-ns#"
   xmlns:svg="http://www.w3.org/2000/svg"
   xmlns="http://www.w3.org/2000/svg"
   xmlns:sodipodi="http://sodipodi.sourceforge.net/DTD/sodipodi-0.dtd"
   xmlns:inkscape="http://www.inkscape.org/namespaces/inkscape"
   version="1.1"
   id="Layer_1"
   x="0px"
   y="0px"
   viewBox="0 0 23 23"
   xml:space="preserve"
   inkscape:version="0.48.4 r9939"
   width="100%"
   height="100%"
   sodipodi:docname="add.svg"><metadata
     id="metadata43"><rdf:RDF><cc:Work
         rdf:about=""><dc:format>image/svg+xml</dc:format><dc:type
           rdf:resource="http://purl.org/dc/dcmitype/StillImage" /><dc:title /></cc:Work></rdf:RDF></metadata><defs
     id="defs41" /><sodipodi:namedview
     pagecolor="#ffffff"
     bordercolor="#666666"
     borderopacity="1"
     objecttolerance="10"
     gridtolerance="10"
     guidetolerance="10"
     inkscape:pageopacity="0"
     inkscape:pageshadow="2"
     inkscape:window-width="1249"
     inkscape:window-height="759"
     id="namedview39"
     showgrid="false"
     inkscape:zoom="4"
     inkscape:cx="123.9"
     inkscape:cy="53.6"
     inkscape:window-x="167"
     inkscape:window-y="114"
     inkscape:window-maximized="0"
     inkscape:current-layer="g5" /><style
     type="text/css"
     id="style3">
	.st0{fill:#FFFFFF;}
</style><g
     transform="translate(-93.800002,-190.75)"
     id="g5"
     style="fill:#666666"><path
       inkscape:connector-curvature="0"
       class="st0"
       d="m 110.4,193.5 c -1.6,-0.9 -3.3,-1.4 -5.2,-1.4 -1.9,0 -3.6,0.5 -5.2,1.4 -1.6,0.9 -2.8,2.2 -3.7,3.7 -0.9,1.6 -1.4,3.3 -1.4,5.2 0,1.9 0.5,3.6 1.4,5.2 0.9,1.6 2.2,2.8 3.7,3.7 1.6,0.9 3.3,1.4 5.2,1.4 1.9,0 3.6,-0.5 5.2,-1.4 1.6,-0.9 2.8,-2.2 3.7,-3.7 0.9,-1.6 1.4,-3.3 1.4,-5.2 0,-1.9 -0.5,-3.6 -1.4,-5.2 -0.8,-1.5 -2.1,-2.8 -3.7,-3.7 z m 0.6,10.4 c -0.2,0.2 -0.4,0.3 -0.6,0.3 H 107 v 3.4 c 0,0.2 -0.1,0.4 -0.3,0.6 -0.2,0.2 -0.4,0.3 -0.6,0.3 h -1.7 c -0.2,0 -0.4,-0.1 -0.6,-0.3 -0.2,-0.2 -0.3,-0.4 -0.3,-0.6 v -3.4 h -3.4 c -0.2,0 -0.4,-0.1 -0.6,-0.3 -0.2,-0.2 -0.3,-0.4 -0.3,-0.6 v -1.7 c 0,-0.2 0.1,-0.4 0.3,-0.6 0.2,-0.2 0.4,-0.3 0.6,-0.3 h 3.4 v -3.4 c 0,-0.2 0.1,-0.4 0.3,-0.6 0.2,-0.2 0.4,-0.3 0.6,-0.3 h 1.7 c 0.2,0 0.4,0.1 0.6,0.3 0.2,0.2 0.3,0.4 0.3,0.6 v 3.4 h 3.4 c 0.2,0 0.4,0.1 0.6,0.3 0.2,0.2 0.3,0.4 0.3,0.6 v 1.7 c 0,0.2 -0.1,0.4 -0.3,0.6 z"
       id="path7"
       style="fill:#4d4d4d" /></g></svg>