<?xml version="1.0" encoding="utf-8"?>
<!-- Generator: Adobe Illustrator 20.0.0, SVG Export Plug-In . SVG Version: 6.00 Build 0)  -->
<svg version="1.1"
	 id="Layer_1" inkscape:version="0.48.4 r9939" sodipodi:docname="add.svg" xmlns:cc="http://creativecommons.org/ns#" xmlns:dc="http://purl.org/dc/elements/1.1/" xmlns:inkscape="http://www.inkscape.org/namespaces/inkscape" xmlns:rdf="http://www.w3.org/1999/02/22-rdf-syntax-ns#" xmlns:sodipodi="http://sodipodi.sourceforge.net/DTD/sodipodi-0.dtd" xmlns:svg="http://www.w3.org/2000/svg"
	 xmlns="http://www.w3.org/2000/svg" xmlns:xlink="http://www.w3.org/1999/xlink" x="0px" y="0px" viewBox="0 0 595.3 841.9"
	 style="enable-background:new 0 0 595.3 841.9;" xml:space="preserve">
<style type="text/css">
	.st0{fill:#415822;}
</style>
<sodipodi:namedview  bordercolor="#666666" borderopacity="1" gridtolerance="10" guidetolerance="10" id="namedview39" inkscape:current-layer="g5" inkscape:cx="123.9" inkscape:cy="53.6" inkscape:pageopacity="0" inkscape:pageshadow="2" inkscape:window-height="759" inkscape:window-maximized="0" inkscape:window-width="1249" inkscape:window-x="167" inkscape:window-y="114" inkscape:zoom="4" objecttolerance="10" pagecolor="#ffffff" showgrid="false">
	</sodipodi:namedview>
<g>
	<path class="st0" d="M64.2,291c-23.8,40.8-35.8,85.5-35.8,133.8c0,48.4,11.9,93,35.8,133.8c23.8,40.8,56.2,73.2,97,97
		c40.8,23.8,85.4,35.8,133.8,35.8c48.4,0,93-11.9,133.8-35.8c40.8-23.8,73.2-56.2,97-97c23.8-40.8,35.8-85.4,35.8-133.8
		c0-48.4-11.9-93-35.8-133.8c-23.8-40.8-56.2-73.2-97-97c-40.8-23.8-85.4-35.8-133.8-35.8c-48.4,0-93,11.9-133.8,35.8
		C120.4,217.8,88.1,250.2,64.2,291z M441.5,424.8c0,6-2.2,11.2-6.6,15.6L277.3,598c-4.4,4.4-9.6,6.6-15.6,6.6
		c-6,0-11.2-2.2-15.6-6.6l-35.4-35.4c-4.4-4.4-6.6-9.6-6.6-15.6c0-6,2.2-11.2,6.6-15.6l106.6-106.6L210.7,318.3
		c-4.4-4.4-6.6-9.6-6.6-15.6c0-6,2.2-11.2,6.6-15.6l35.4-35.4c4.4-4.4,9.6-6.6,15.6-6.6c6,0,11.2,2.2,15.6,6.6l157.6,157.6
		C439.3,413.6,441.5,418.8,441.5,424.8z"/>
</g>
</svg>
