<?xml version="1.0" encoding="utf-8"?>
<!-- Generator: Adobe Illustrator 20.1.0, SVG Export Plug-In . SVG Version: 6.00 Build 0)  -->
<svg version="1.1" id="Layer_1" xmlns="http://www.w3.org/2000/svg" xmlns:xlink="http://www.w3.org/1999/xlink" x="0px" y="0px"
	 viewBox="0 0 203.1 107.2" style="enable-background:new 0 0 203.1 107.2;" xml:space="preserve">
<style type="text/css">
	.st0{display:none;}
	.st1{display:inline;}
	.st2{fill:#FFFFFF;}
</style>
<g class="st0">
	
		<image style="display:inline;overflow:visible;opacity:0.15;enable-background:new    ;" width="850" height="454" xlink:href="50B879DC.png"  transform="matrix(0.2386 0 0 0.2379 53.7144 0.5818)">
	</image>
	<g class="st1">
		<g>
			<path class="st2" d="M230.2,43.3c2,1.6,5.3,1.5,9.8-0.5V39c-4.8-1.9-8.2-2-10-0.4C228.2,40.1,228.2,41.7,230.2,43.3z M234.9,21
				c3.8-0.3,6.8,0.5,9.1,2.2s3.6,4,3.8,6.7l-0.1,17.2c0.1,2.3-1.1,3.6-3.6,3.8s-3.9-0.6-4.1-2.3c-0.9,1.5-3.5,2.2-7.7,2.1
				c-4.2-0.1-7.2-1.1-8.9-3.1s-2.3-4.6-1.8-8.1s2.6-5.8,6.5-7.1c3.9-1.3,7.9-1,12.3,1c0.6-3.1-0.7-4.7-4.2-4.8s-6.3,0.4-8.5,1.6
				c-2.3,1.2-3.8,0.6-4.6-1.6s0-3.9,2.5-5.2S231.1,21.3,234.9,21z M200.9,28.1v6.2c5.3,1.3,7.9,0.2,7.8-3.4
				C208.5,27.4,205.9,26.5,200.9,28.1z M200.7,22.3c6.3-2.4,10.8-1.8,13.5,1.7s2.9,7.4,0.5,11.6c-1,1.7-2.5,2.7-4.6,3.2
				c1.8,0.7,3.6,2.5,5.4,5.3l4.4,5.9c2.5,2.6,4.2,4.2,5.1,4.9c0.9,0.7,1.3,1.7,1.3,3.1c0,1.3-0.5,2.3-1.5,2.9
				c-0.9,0.6-2.1,0.8-3.4,0.6c-1.3-0.2-3.1-1.5-5.2-4l-2.6-3.6c-2.6-3.3-4.9-6.3-6.8-8.8s-3.8-3.7-5.6-3.3v6.7
				c-0.4,1.5-1.8,2.2-4.2,2.2s-3.7-1-3.7-3V23.2c-0.3-1.7,0.8-2.6,3.3-2.6C199,20.5,200.4,21,200.7,22.3z M173,43.3
				c2,1.6,5.3,1.5,9.8-0.5V39c-4.8-1.9-8.2-2-10-0.4C171,40.1,171,41.7,173,43.3z M177.7,21c3.8-0.3,6.8,0.5,9.1,2.2s3.6,4,3.8,6.7
				l-0.1,17.2c0.1,2.3-1.1,3.6-3.6,3.8s-3.9-0.6-4.1-2.3c-0.9,1.5-3.5,2.2-7.7,2.1c-4.2-0.1-7.2-1.1-8.9-3.1s-2.3-4.6-1.8-8.1
				s2.6-5.8,6.5-7.1c3.9-1.3,7.9-1,12.3,1c0.6-3.1-0.7-4.7-4.2-4.8s-6.3,0.4-8.5,1.6c-2.3,1.2-3.8,0.6-4.6-1.6s0-3.9,2.5-5.2
				S173.9,21.3,177.7,21z M143,11.8v12.3c2.9-2.5,6-3.6,9.1-3.3s5.5,1.5,7.2,3.5s2.8,4.7,3.1,8s-0.7,7.3-3.1,12s-2.9,8.2-1.1,10.5
				s2.4,4.2,1.9,5.8s-1.7,2.4-3.6,2.3c-2-0.1-3.7-1.5-5.2-4.2s-2-5.8-1.5-9.1s1.5-6.4,3-9.2s2-5.5,1.5-8.2s-2.4-4-5.8-3.8
				s-5.2,1.3-5.5,3.3v16.4c0,1.8-1.3,2.7-3.9,2.8c-2.6,0.1-4-1-4-3.3L135,11.9c0.2-1.9,1.5-2.8,4-2.8C141.4,9.1,142.8,10,143,11.8z
				 M114.2,43.3c2,1.6,5.3,1.5,9.8-0.5V39c-4.8-1.9-8.2-2-10-0.4C112.2,40.1,112.3,41.7,114.2,43.3z M118.9,21
				c3.8-0.3,6.8,0.5,9.1,2.2c2.3,1.7,3.6,4,3.8,6.7l-0.1,17.2c0.1,2.3-1.1,3.6-3.6,3.8s-3.9-0.6-4.1-2.3c-0.9,1.5-3.5,2.2-7.7,2.1
				c-4.2-0.1-7.2-1.1-8.9-3.1c-1.7-2-2.3-4.6-1.8-8.1c0.4-3.4,2.6-5.8,6.5-7.1c3.9-1.3,7.9-1,12.3,1c0.6-3.1-0.7-4.7-4.2-4.8
				c-3.4-0.1-6.3,0.4-8.5,1.6c-2.3,1.2-3.8,0.6-4.6-1.6c-0.8-2.2,0-3.9,2.5-5.2C112,22.1,115.1,21.3,118.9,21z M70.3,23.5
				c1.8-1.8,4.2-2.6,7.3-2.5c3.1,0.1,5.3,1.3,6.7,3.5c3.2-2.9,7.1-4,11.6-3.2c4.6,0.8,7.1,4,7.4,9.5l0.1,16.3
				c-0.2,2.4-1.5,3.6-3.7,3.6c-2.3,0-3.6-1.1-4-3.5l0.1-16.6c-0.4-2-1.9-3-4.4-3s-3.9,1.1-4.4,3.3l0.1,16.4c-0.3,2.2-1.7,3.4-4,3.4
				s-3.7-1-4-3.1L79.2,31c-0.5-2-2-3.1-4.6-3.1s-4,1-4.3,3.1v16.8c0,1.8-1.3,2.8-3.9,2.9c-2.6,0.1-4-1-4-3.4l-0.1-23.6
				c0.4-1.8,1.8-2.7,4.1-2.8C68.7,21,70,21.8,70.3,23.5z"/>
			<path class="st2" d="M215.2,92.2c-0.7-2.5-2.4-3.2-5.2-2c-2.8,2.1-5.4,2.8-7.7,2.1c-2.3-0.7-3.6-2-4.1-4h8.8
				c1.8-0.7,2.7-1.9,2.8-3.6s-0.9-2.9-2.7-3.3h-8.8c0.2-2.2,1.5-3.6,3.9-4.2s4.9-0.1,7.3,1.4c2.6,0.7,4.2,0,5.1-2.3
				c0.8-2.3-0.4-4.1-3.6-5.5s-6.9-1.5-11.2-0.2s-7.2,4.2-8.8,8.8c-1.6,4.6-1.4,8.9,0.4,12.9c1.9,4,4.9,6.4,9.1,7.3s7.8,0.5,11-1.2
				S215.9,94.7,215.2,92.2z M186.9,61.6v34.9c-0.4,2.3-1.8,3.4-4.1,3.4s-3.6-1.2-4-3.6V61.6c0.3-2.3,1.6-3.4,4-3.4
				S186.6,59.3,186.9,61.6z M175.5,73v23.5c-0.4,2.3-1.8,3.4-4.1,3.4s-3.6-1.2-4-3.6V73c0.2-2.3,1.6-3.4,4-3.4S175.2,70.7,175.5,73z
				 M176,63c0,3.1-1.5,4.7-4.3,4.7c-2.9,0-4.3-1.6-4.3-4.8s1.4-4.8,4.3-4.7C174.6,58.3,176,59.9,176,63z M145.5,78.8v11.5
				c2.2,2.1,4.6,2.7,7.2,2.1c2.5-0.7,4.2-2,4.9-3.8c0.7-1.9,0.9-3.9,0.5-6.2s-1.8-3.9-4.3-4.8C151.2,76.7,148.5,77.1,145.5,78.8z
				 M145.1,60.2l0.1,11.1c2.7-1.7,6.2-2.1,10.3-1.2c4.2,0.9,7.1,3.6,8.9,8.1c1.8,4.6,1.5,9.2-0.8,13.8c-2.3,4.7-5.7,7.2-10,7.7
				s-7.2-0.2-8.5-1.9c-0.7,1.4-2.1,2.1-4.1,2s-3.2-0.9-3.5-2.2l0.1-37.1c0.5-1.4,1.8-2.2,3.7-2.2S144.4,58.8,145.1,60.2z
				 M115.9,84.2c0,4.7,2,7,6.2,6.9s6.1-2.5,5.9-7.2c-0.2-4.6-2.3-6.9-6.2-6.9C117.9,77,115.9,79.4,115.9,84.2z M135.2,80.9
				c0.8,7.2-0.2,12.2-3.2,14.9c-3,2.7-6.3,4.1-10,4.2s-6.9-1.3-9.8-4s-3.9-7.7-3.1-14.9s5.1-10.8,13-10.9
				C129.9,70.1,134.3,73.7,135.2,80.9z M73.4,72.5c1.8-1.8,4.2-2.6,7.3-2.5c3.1,0.1,5.3,1.3,6.7,3.5c3.2-2.9,7.1-4,11.6-3.2
				c4.6,0.8,7.1,4,7.4,9.5l0.1,16.3c-0.2,2.4-1.5,3.6-3.7,3.6c-2.3,0-3.6-1.1-4-3.5l0.1-16.6c-0.4-2-1.9-3-4.4-3s-3.9,1.1-4.4,3.3
				l0.1,16.4c-0.3,2.2-1.7,3.4-4,3.4s-3.7-1-4-3.1L82.3,80c-0.5-2-2-3.1-4.6-3.1s-4,1-4.3,3.1v16.8c0,1.8-1.3,2.8-3.9,2.9
				s-4-1-4-3.4l-0.1-23.6c0.4-1.8,1.8-2.7,4.1-2.8C71.8,70,73.1,70.8,73.4,72.5z"/>
		</g>
	</g>
</g>
<g class="st0">
	
		<image style="display:inline;overflow:visible;opacity:0.15;enable-background:new    ;" width="313" height="525" xlink:href="50B879DD.png"  transform="matrix(0.2377 0 0 0.2368 -8.5039 -8.5039)">
	</image>
	<g class="st1">
		<g>
			<g>
				<path class="st2" d="M38.9,44.7c-0.2,0.1-0.3,0.2-0.4,0.2c2.9,2.8,4.2,4.4,6.7,7.9c4.7,6.3,10.1,15.9,10.1,26.5
					c0,15.4-8.6,26.9-25.1,26.9S2.6,95.2,2.4,79.3C2.3,60.5,16.3,47.9,19.3,45.4L19,45c0.1,0.1,0.2,0.2,0.2,0.4
					c0.3-0.3,0.5-0.4,0.5-0.4c-2.8-4.6-5.3-10.2-5.3-17C14.5,14,28.3,1.2,29.9,1.2s15.5,10.3,15.5,26.6
					C45.3,39.4,40.7,43.5,38.9,44.7c1-0.5,7.6-4.1,7.6-17.5C46.5,10.5,31.4,0,29.7,0C28,0,13,13,13,27.2c0,7,2.7,12.7,5.7,17.4
					C18.4,44.9-0.2,58.4,0,79.7c0.2,16.3,12.2,27.5,30.1,27.5s27.2-11.7,27.2-27.5C57.3,60.7,39.2,45,38.9,44.7z"/>
				<path class="st2" d="M32.4,28.9c0.5,0,1,0,1.4,0.1c-0.6-0.5-1.3-0.6-2.4-0.3c-0.3,0.1-0.6,0.2-0.8,0.4
					c-0.7,0.9-0.9,3.4,3.6,10.1c0-0.1,0.1-0.3,0.1-0.5l-2.5-4.6C31.7,34.1,29.3,29.1,32.4,28.9z"/>
				<path class="st2" d="M26.9,67.9c2.2,0.1,3-1.2,3-2.9c-0.1-4.3-4.7-11.4-4.7-11.4c-0.7-1.3-1.7-2.8-2.7-4.3l1.2,2l-0.2,0.6
					c0.4,0.6,0.7,1.1,1,1.6c0,0,7.2,12.5,1.7,13.2c-2.8,0.4-3.8-2.8-4-6.4c0,0.1,0,0.1,0,0.2C22.3,64.2,23.3,67.8,26.9,67.9z"/>
			</g>
			<path class="st2" d="M28.8,20.7c0,0,1.4-0.5,1.4,1.2v1.8c0,0,0,0.5-0.9,1c-1.2,0.7-5.7,4.3-5.3,8.7c0.3,3.8,3.7,9.4,10.8,17.4
				c6.8,7.8,18.4,25.1,18,33.2c-0.3,7.2-3.1,11.2-8.1,14.5c-3.6,2.4-5.8,2.2-5.8,2.2s-1.5-0.1-0.4-1.4s4.8-5.3,4.6-12.9
				C42.9,78.2,30.4,59,30.4,59S18.2,41.1,18.2,34.8C18.2,24.2,28.8,20.7,28.8,20.7"/>
			<path class="st2" d="M44.6,28.8c0,7.8-3.1,14.7-7.6,16.4c-1.9,0.7-5.3,1-5.3,0.1c0.1-1.7,2.3,0.6,4.8-1.6
				C38.6,42,41,37,40.4,30.6c-0.8-10-6.9-14-7.9-14.7c-0.8-0.6-2.1-0.7-2.2-2.2c-0.2-2.6-0.5-7.5-0.5-7.5s-0.2-2.7,1.9-1.3
				C33.8,6.2,44.6,13.4,44.6,28.8"/>
			<path class="st2" d="M20.7,47.1c0,0,0,0.3,1.1,1.2l1,1.8c0,0,0.5,0.5,0.3,0.9c-0.5,1.1-9.9,26.7,5.3,25.7c0,0,2.6-0.2,4.2-2.4
				c0.8-1.1,1.7-2.2,2.2,0c0.5,2.5,5.8,17.3-4.3,25.6C22.4,106.4,0.4,94.9,20.7,47.1"/>
		</g>
	</g>
</g>
<g>
	
		<image style="overflow:visible;opacity:0.2;" width="222" height="126" xlink:href="50B879DB.png"  transform="matrix(1 0 0 1 -8.5039 -9.3039)">
	</image>
	<g>
		<g>
			<g>
				<g>
					<path class="st2" d="M194.3,71.5c0.6,0.6,0.9,1.2,1,1.8l-7.8,1.3c0-0.5,0.1-1,0.3-1.4c0.2-0.5,0.4-0.9,0.8-1.3
						c0.3-0.4,0.8-0.7,1.3-0.9c0.5-0.2,1.2-0.4,1.9-0.4C192.9,70.6,193.8,70.9,194.3,71.5z M196.5,88.2c1.2-0.2,2.3-0.5,3.3-1
						c1.3-0.7,1.9-1.7,1.9-3.1c0-0.6-0.2-1.2-0.5-1.7c-0.3-0.5-0.7-1-1.2-1.3c-0.7,0.4-1.6,0.8-2.7,1.1c-1.1,0.3-2.3,0.5-3.5,0.5
						c-1.3,0-2.5-0.3-3.6-0.8c-1-0.5-1.7-1.3-2.1-2.3l11.3-1.7c1-0.2,1.8-0.5,2.4-1c0.6-0.5,0.9-1.3,0.9-2.4c0-1.4-0.3-2.7-0.8-3.9
						c-0.5-1.2-1.3-2.2-2.2-3.1c-1-0.9-2.1-1.5-3.4-2c-1.3-0.5-2.8-0.7-4.4-0.7c-1.4,0-2.8,0.2-4.2,0.7c-1.4,0.4-2.6,1.1-3.6,2.1
						c-1.1,0.9-1.9,2.1-2.6,3.6c-0.7,1.4-1,3.2-1,5.2c0,2,0.3,3.8,1,5.3c0.7,1.5,1.6,2.8,2.7,3.8c1.1,1,2.5,1.8,4,2.3
						c1.5,0.5,3.2,0.8,5,0.8C194.1,88.5,195.3,88.4,196.5,88.2z M177.1,61.3c0-0.8-0.1-1.4-0.3-1.8c-0.2-0.5-0.5-0.8-0.8-1.1
						c-0.4-0.3-0.8-0.5-1.3-0.5c-0.5-0.1-1.1-0.1-1.8-0.1c-0.7,0-1.3,0.1-2,0.2c-0.7,0.1-1.1,0.2-1.5,0.3v26.4
						c0,0.8,0.1,1.4,0.3,1.8c0.2,0.5,0.5,0.8,0.8,1.1c0.4,0.3,0.8,0.5,1.3,0.5c0.5,0.1,1.1,0.1,1.8,0.1c0.7,0,1.3-0.1,2-0.2
						c0.7-0.1,1.1-0.2,1.5-0.3V61.3z M164.9,69.1c0-0.8-0.1-1.4-0.3-1.8c-0.2-0.5-0.5-0.8-0.8-1.1c-0.4-0.3-0.8-0.5-1.3-0.5
						c-0.5-0.1-1.1-0.1-1.8-0.1c-0.7,0-1.3,0.1-2,0.2c-0.7,0.1-1.1,0.2-1.5,0.3v18.6c0,0.8,0.1,1.4,0.3,1.8c0.2,0.5,0.5,0.8,0.8,1.1
						s0.8,0.5,1.3,0.5c0.5,0.1,1.1,0.1,1.8,0.1c0.7,0,1.3-0.1,2-0.2c0.7-0.1,1.1-0.2,1.5-0.3V69.1z M157.9,62.3
						c0.8,0.8,1.8,1.2,3.1,1.2s2.3-0.4,3.1-1.2c0.8-0.8,1.2-1.8,1.2-2.9c0-1.2-0.4-2.1-1.2-2.9c-0.8-0.8-1.8-1.2-3.1-1.2
						s-2.3,0.4-3.1,1.2c-0.8,0.8-1.2,1.8-1.2,2.9C156.7,60.6,157.1,61.6,157.9,62.3z M139.7,82.2c-0.5-0.1-0.9-0.3-1.2-0.5v-9.9
						c0.5-0.2,1-0.4,1.4-0.5c0.4-0.1,1-0.2,1.6-0.2c1.3,0,2.4,0.5,3.2,1.4c0.8,0.9,1.2,2.4,1.2,4.3c0,1.9-0.4,3.3-1.2,4.3
						c-0.8,1-1.9,1.4-3.3,1.4C140.8,82.4,140.2,82.3,139.7,82.2z M130.8,82.4c0,1.5,0.7,2.7,2,3.6c1,0.7,2.2,1.3,3.6,1.8
						c1.4,0.5,3.1,0.7,5.1,0.7c1.9,0,3.5-0.3,5.1-0.8c1.5-0.5,2.8-1.2,3.9-2.2c1.1-1,1.9-2.2,2.5-3.7c0.6-1.5,0.9-3.2,0.9-5.2
						c0-1.9-0.3-3.6-0.9-5.1c-0.6-1.5-1.4-2.7-2.4-3.7c-1-1-2.2-1.7-3.5-2.3c-1.3-0.5-2.7-0.8-4.1-0.8c-0.8,0-1.6,0.1-2.3,0.2
						c-0.7,0.1-1.4,0.3-2.2,0.6v-4.5c0-0.8-0.1-1.4-0.3-1.8c-0.2-0.5-0.5-0.8-0.8-1.1c-0.4-0.3-0.8-0.5-1.3-0.5
						c-0.5-0.1-1.1-0.1-1.8-0.1c-0.7,0-1.4,0.1-2.1,0.2c-0.7,0.1-1.2,0.2-1.5,0.3V82.4z M112.7,72.4c0.7-1,1.7-1.5,3-1.5
						c1.3,0,2.3,0.5,3,1.5c0.7,1,1,2.4,1,4.2c0,1.8-0.3,3.2-1,4.2c-0.7,1-1.7,1.5-2.9,1.5c-1.3,0-2.3-0.5-3-1.5
						c-0.7-1-1.1-2.4-1.1-4.3C111.6,74.8,112,73.4,112.7,72.4z M126.7,71.8c-0.6-1.5-1.4-2.7-2.4-3.7c-1-1-2.3-1.8-3.8-2.4
						c-1.5-0.6-3.1-0.8-4.9-0.8c-1.8,0-3.4,0.3-4.9,0.8c-1.5,0.5-2.7,1.3-3.8,2.3c-1,1-1.9,2.3-2.4,3.7c-0.6,1.5-0.9,3.1-0.9,4.9
						c0,1.8,0.3,3.5,0.9,4.9c0.6,1.5,1.4,2.7,2.4,3.7c1,1,2.3,1.8,3.8,2.3s3.1,0.8,4.9,0.8c1.8,0,3.4-0.3,4.9-0.8
						c1.5-0.5,2.7-1.3,3.8-2.3c1-1,1.9-2.2,2.4-3.7c0.6-1.5,0.9-3.2,0.9-5C127.6,74.9,127.3,73.3,126.7,71.8z"/>
				</g>
				<path class="st2" d="M73.5,65.7c-1.2-1.2-4.8-0.8-6.8-0.4l0,19.2c0,0.8,0.1,1.4,0.3,1.8c0.2,0.5,0.5,0.8,0.8,1.1
					c0.4,0.3,0.8,0.5,1.3,0.5c0.5,0.1,1.1,0.1,1.8,0.1c0.7,0,1.4,0,2-0.1c0.7-0.1,1.1-0.2,1.4-0.3v-16c0.3-0.2,0.6-0.3,1-0.5
					c0.4-0.2,0.9-0.3,1.4-0.3c0.8,0,1.5,0.2,2,0.6c0.6,0.4,0.8,1.1,0.8,2v10.9c0,0.8,0.1,1.4,0.3,1.8c0.2,0.5,0.5,0.8,0.8,1.1
					c0.4,0.3,0.8,0.5,1.3,0.5c0.5,0.1,1.1,0.1,1.8,0.1c0.7,0,1.3,0,2-0.1c0.7-0.1,1.1-0.2,1.5-0.3V72.5c0-0.1,0-0.2,0-0.3
					c0-0.1,0-0.2,0-0.3c0.2-0.2,0.6-0.4,1.1-0.6c0.5-0.2,0.9-0.3,1.4-0.3c0.9,0,1.6,0.2,2.1,0.6c0.5,0.4,0.8,1.1,0.8,2v10.9
					c0,0.8,0.1,1.4,0.3,1.8c0.2,0.5,0.5,0.8,0.8,1.1c0.4,0.3,0.8,0.5,1.3,0.5c0.5,0.1,1.1,0.1,1.8,0.1c0.7,0,1.4,0,2-0.1
					c0.7-0.1,1.1-0.2,1.4-0.3V73.3c0-1.6-0.3-2.9-0.8-3.9c-0.5-1.1-1.2-1.9-2.1-2.6c-0.9-0.7-1.9-1.1-3-1.4
					c-1.1-0.3-2.2-0.5-3.4-0.5c-1.6,0-3,0.2-4.1,0.6c-1.1,0.4-1.7,0.6-2.7,1.2c-1.2-0.8-2.1-1.2-3.4-1.5c-1.5-0.3-2.7-0.4-4.1-0.3
					C75.9,65,75,65.1,73.5,65.7z"/>
			</g>
			<g>
				<g>
					<g>
						<path class="st2" d="M173.1,33.3c0.4-0.2,0.9-0.3,1.4-0.5c0.6-0.1,1.2-0.3,1.8-0.4c0.6-0.1,1.3-0.2,2-0.3
							c0.7-0.1,1.3-0.1,2-0.1c0.2-0.3,0.3-0.7,0.5-1.1c0.1-0.4,0.2-0.8,0.2-1.3c0-1.3-0.4-2.2-1.3-2.8c-0.9-0.6-2-0.8-3.5-0.8
							c-0.9,0-1.8,0.1-2.6,0.2c-0.9,0.1-1.7,0.3-2.6,0.6c-0.8,0.2-1.6,0.5-2.3,0.8c-0.7,0.3-1.3,0.7-1.8,1.1
							c-0.5,0.4-0.9,0.8-1.1,1.3c-0.3,0.5-0.4,1.1-0.4,1.8v13.7c0,0.8,0.1,1.4,0.3,1.8c0.2,0.5,0.5,0.8,0.8,1.1
							c0.4,0.3,0.8,0.5,1.3,0.5c0.5,0.1,1.1,0.1,1.8,0.1c0.7,0,1.4,0,2-0.1c0.7-0.1,1.1-0.2,1.4-0.3V33.3z M137,35
							c0-3-0.8-5.2-2.5-6.7c-1.7-1.5-4-2.3-7-2.3c-1,0-1.9,0.1-2.7,0.3c-0.8,0.2-1.4,0.4-1.8,0.5v-4.5c0-0.8-0.1-1.4-0.3-1.8
							c-0.2-0.5-0.5-0.8-0.8-1.1c-0.4-0.3-0.8-0.5-1.3-0.5c-0.5-0.1-1.1-0.1-1.8-0.1c-0.7,0-1.3,0.1-2,0.2c-0.7,0.1-1.1,0.2-1.5,0.3
							v26.5c0,0.8,0.1,1.4,0.3,1.8c0.2,0.5,0.5,0.8,0.8,1.1c0.4,0.3,0.8,0.5,1.3,0.5c0.5,0.1,1.1,0.1,1.8,0.1c0.7,0,1.4,0,2-0.1
							c0.7-0.1,1.1-0.2,1.4-0.3v-16c0.3-0.2,0.8-0.4,1.3-0.5c0.5-0.2,1.1-0.2,1.7-0.2c0.9,0,1.7,0.3,2.3,0.8
							c0.6,0.5,0.9,1.4,0.9,2.6v10.1c0,0.8,0.1,1.4,0.3,1.8c0.2,0.5,0.5,0.8,0.8,1.1c0.4,0.3,0.8,0.5,1.3,0.5
							c0.5,0.1,1.1,0.1,1.8,0.1c0.7,0,1.4,0,2-0.1c0.7-0.1,1.1-0.2,1.4-0.3V35z M96.6,26.2c-1.2,0.2-2.2,0.4-3.1,0.7
							c-0.8,0.3-1.4,0.7-1.8,1.2c-0.4,0.5-0.6,1.1-0.6,1.9c0,0.6,0.1,1.2,0.4,1.8c0.3,0.6,0.6,1,1,1.3c0.9-0.4,1.9-0.7,3-0.9
							c1.1-0.2,2.2-0.4,3.4-0.4c1.5,0,2.6,0.2,3.4,0.6c0.8,0.4,1.2,1,1.2,1.9v0.3l-6,0.6c-2.6,0.3-4.5,1-5.8,2.1
							c-1.2,1.1-1.9,2.7-1.9,4.8c0,1.2,0.3,2.3,0.8,3.3c0.5,0.9,1.2,1.7,2.1,2.3c0.9,0.6,2,1.1,3.3,1.4c1.3,0.3,2.8,0.5,3.9,0.5
							c2.7,0,4.3-1.2,4.3-1.2c0.6,0.6,3.2,1.3,6.7,0.3c0-0.7,0-3.4,0-4.2V34.4c0-1.4-0.3-2.7-0.8-3.7c-0.5-1-1.3-1.9-2.2-2.6
							c-1-0.7-2.1-1.2-3.5-1.5c-1.4-0.3-2.9-0.5-4.5-0.5C98.9,26,97.8,26.1,96.6,26.2z M98,43.4c-0.5-0.4-0.7-0.9-0.7-1.5
							c0-0.6,0.3-1.1,0.8-1.4c0.5-0.3,1.2-0.5,2.1-0.5l3.3-0.3v3.6c-0.3,0.2-0.8,0.3-1.4,0.4c-0.6,0.1-1.2,0.2-1.7,0.2
							C99.2,43.9,98.4,43.7,98,43.4z M59.7,26.8c-1.2-1.2-4.8-0.8-6.8-0.4l0,19.2c0,0.8,0.1,1.4,0.3,1.8c0.2,0.5,0.5,0.8,0.8,1.1
							c0.4,0.3,0.8,0.5,1.3,0.5c0.5,0.1,1.1,0.1,1.8,0.1c0.7,0,1.4,0,2-0.1c0.7-0.1,1.1-0.2,1.4-0.3v-16c0.3-0.2,0.6-0.3,1-0.5
							c0.4-0.2,0.9-0.3,1.4-0.3c0.8,0,1.5,0.2,2,0.6c0.6,0.4,0.8,1.1,0.8,2v10.9c0,0.8,0.1,1.4,0.3,1.8c0.2,0.5,0.5,0.8,0.8,1.1
							c0.4,0.3,0.8,0.5,1.3,0.5c0.5,0.1,1.1,0.1,1.8,0.1c0.7,0,1.3,0,2-0.1c0.7-0.1,1.1-0.2,1.5-0.3V33.6c0-0.1,0-0.2,0-0.3
							c0-0.1,0-0.2,0-0.3c0.2-0.2,0.6-0.4,1.1-0.6c0.5-0.2,0.9-0.3,1.4-0.3c0.9,0,1.6,0.2,2.1,0.6c0.5,0.4,0.8,1.1,0.8,2v10.9
							c0,0.8,0.1,1.4,0.3,1.8c0.2,0.5,0.5,0.8,0.8,1.1c0.4,0.3,0.8,0.5,1.3,0.5c0.5,0.1,1.1,0.1,1.8,0.1c0.7,0,1.4,0,2-0.1
							c0.7-0.1,1.1-0.2,1.4-0.3V34.4c0-1.6-0.3-2.9-0.8-3.9c-0.5-1.1-1.2-1.9-2.1-2.6c-0.9-0.7-1.9-1.1-3-1.4
							c-1.1-0.3-2.2-0.5-3.4-0.5c-1.6,0-3,0.2-4.1,0.6c-1.1,0.4-1.7,0.6-2.7,1.2c-1.2-0.8-2.1-1.2-3.4-1.5C65.9,26,64.7,26,63.3,26
							C62.1,26.1,61.2,26.2,59.7,26.8z"/>
					</g>
				</g>
				<g>
					<g>
						<path class="st2" d="M160.4,30.6c-0.5-1-1.3-1.9-2.2-2.6c-1-0.7-2.1-1.2-3.5-1.5c-1.4-0.3-2.9-0.5-4.5-0.5
							c-1.1,0-2.2,0.1-3.4,0.2c-1.2,0.2-2.2,0.4-3.1,0.7c-0.8,0.3-1.4,0.7-1.8,1.2c-0.4,0.5-0.6,1.1-0.6,1.9c0,0.6,0.1,1.2,0.4,1.8
							c0.3,0.6,0.6,1,1,1.3c0.9-0.4,1.9-0.7,3-0.9c1.1-0.2,2.2-0.4,3.4-0.4c1.5,0,2.6,0.2,3.4,0.6c0.8,0.4,1.2,1,1.2,1.9v0.3l-6,0.6
							c-2.6,0.3-4.5,1-5.8,2.1c-1.2,1.1-1.9,2.7-1.9,4.8c0,1.2,0.3,2.3,0.8,3.3c0.5,0.9,1.2,1.7,2.1,2.3c0.9,0.6,2,1.1,3.3,1.4
							c1.3,0.3,2.8,0.5,3.9,0.5c2.7,0,4.3-1.2,4.3-1.2c0.6,0.6,3.2,1.3,6.7,0.3c0-0.7,0-3.4,0-4.2V34.4
							C161.2,32.9,161,31.7,160.4,30.6z M153.7,43.3c-0.3,0.2-0.8,0.3-1.4,0.4c-0.6,0.1-1.2,0.2-1.7,0.2c-1.1,0-1.9-0.2-2.4-0.6
							c-0.5-0.4-0.7-0.9-0.7-1.5c0-0.6,0.3-1.1,0.8-1.4c0.5-0.3,1.2-0.5,2.1-0.5l3.3-0.3V43.3z"/>
						<path class="st2" d="M202.3,30.6c-0.5-1-1.3-1.9-2.2-2.6c-1-0.7-2.1-1.2-3.5-1.5c-1.4-0.3-2.9-0.5-4.5-0.5
							c-1.1,0-2.2,0.1-3.4,0.2c-1.2,0.2-2.2,0.4-3.1,0.7c-0.8,0.3-1.4,0.7-1.8,1.2c-0.4,0.5-0.6,1.1-0.6,1.9c0,0.6,0.1,1.2,0.4,1.8
							c0.3,0.6,0.6,1,1,1.3c0.9-0.4,1.9-0.7,3-0.9c1.1-0.2,2.2-0.4,3.4-0.4c1.5,0,2.6,0.2,3.4,0.6c0.8,0.4,1.2,1,1.2,1.9v0.3l-6,0.6
							c-2.6,0.3-4.5,1-5.8,2.1c-1.2,1.1-1.9,2.7-1.9,4.8c0,1.2,0.3,2.3,0.8,3.3c0.5,0.9,1.2,1.7,2.1,2.3c0.9,0.6,2,1.1,3.3,1.4
							c1.3,0.3,2.8,0.5,3.9,0.5c2.7,0,4.3-1.2,4.3-1.2c0.6,0.6,3.2,1.3,6.7,0.3c0-0.7,0-3.4,0-4.2V34.4
							C203.1,32.9,202.9,31.7,202.3,30.6z M195.6,43.3c-0.3,0.2-0.8,0.3-1.4,0.4c-0.6,0.1-1.2,0.2-1.7,0.2c-1.1,0-1.9-0.2-2.4-0.6
							c-0.5-0.4-0.7-0.9-0.7-1.5c0-0.6,0.3-1.1,0.8-1.4c0.5-0.3,1.2-0.5,2.1-0.5l3.3-0.3V43.3z"/>
					</g>
				</g>
			</g>
			<g>
				<g>
					<path class="st2" d="M53.2,85c0-3.7-4.2,13.6-24.2,13.6c-13,0-21.9-8.3-21.9-20.8c0-11.9,8.2-23.5,13.2-29.5
						c1.9,2.8,6.6,9.9,7.5,11.4c1.2,2,3.1,7.1-0.1,7.7c-4.5,0.8-4.7-7.2-4.8-9.4c-0.1-0.7-1.1-0.8-1.5-0.2
						C20,60.4,19,68.3,23.1,71.8c3.8,3.2,9.1,1.5,10.4-3.2c3.3,5.8,4.2,11.1,4.7,14.7c0.1,0.6,1,0.6,1.1,0
						c2.1-11.9-3.5-20.1-5.3-23.8c-1.8-3.7-9.5-14.5-10.8-16.7s-4.9-8.6-4.9-15.3c0-10.3,8.5-20.2,10.1-20.2
						c1.6,0,10.5,8.2,10.5,20.5c0,4.7-1.1,8.1-2.3,10.6c-0.4,0.8-1.5,0.8-2,0.1c-4.9-7.6-5-9.2-1.9-11.5c2.1-1.5-7.9-5.6-7.5,2.9
						c0.2,4.5,6.6,13.6,8.1,15.4s10.5-2,10.5-18.2C43.6,10.9,29.6,0,27.9,0c-1.7,0-15.7,13.3-15.7,27.1c0,6.9,2.5,12.7,5.4,17.4
						C17.3,44.8-0.2,58.8,0,79.5c0.2,15.9,10.8,27.4,28.3,27.4C43.6,106.9,53.2,96,53.2,85z"/>
					<path class="st2" d="M45.8,62l-0.9-0.7L45.8,62L45.8,62l-0.9-0.7L45.8,62c0,0,0.8-0.9,2-1.7c0.6-0.4,1.3-0.8,2.1-1.1
						c0.8-0.3,1.7-0.5,2.6-0.5c1,0,1.9,0.2,2.8,0.5c1.3,0.5,2.5,1.2,3.3,1.8c0.4,0.3,0.7,0.6,0.9,0.8c0.1,0.1,0.2,0.2,0.2,0.2l0,0
						l0,0l0.9-0.9l-0.9,0.9l0,0l0.9-0.9l-0.9,0.9c0.9,1,2.5,1,3.5,0.1c1-0.9,1-2.5,0.1-3.5c-0.1-0.1-1.2-1.3-3.1-2.5
						c-0.9-0.6-2.1-1.2-3.4-1.7c-1.3-0.5-2.8-0.8-4.4-0.8s-3.1,0.3-4.4,0.8c-1.9,0.7-3.4,1.7-4.4,2.6c-1,0.9-1.6,1.5-1.7,1.6
						c-0.9,1.1-0.7,2.6,0.3,3.5C43.4,63.2,44.9,63.1,45.8,62L45.8,62z"/>
					<path class="st2" d="M51.6,69.4c0.2-0.2,0.3-0.3,0.5-0.3c0.1-0.1,0.2-0.1,0.4-0.1c0.1,0,0.2,0,0.3,0.1c0.1,0.1,0.3,0.2,0.5,0.4
						c1,1,2.5,1,3.5,0c1-1,1-2.5,0-3.5c-0.6-0.6-1.3-1.1-2-1.4c-0.7-0.3-1.5-0.5-2.3-0.5c-0.8,0-1.6,0.2-2.3,0.5
						c-0.7,0.3-1.4,0.8-2,1.4c-1,1-1,2.5,0,3.5C49.1,70.4,50.7,70.4,51.6,69.4L51.6,69.4z"/>
					<circle class="st2" cx="52.5" cy="76.2" r="2.5"/>
				</g>
			</g>
		</g>
	</g>
</g>
</svg>
