<?xml version="1.0" encoding="utf-8"?>
<!-- Generator: Adobe Illustrator 19.2.1, SVG Export Plug-In . SVG Version: 6.00 Build 0)  -->
<svg version="1.1" id="Layer_1" xmlns="http://www.w3.org/2000/svg" xmlns:xlink="http://www.w3.org/1999/xlink" x="0px" y="0px"
	 viewBox="0 0 612 121.9" style="enable-background:new 0 0 612 121.9;" xml:space="preserve">
<style type="text/css">
	.st0{fill:#5D8828;}
	.st1{fill:url(#SVGID_1_);}
	.st2{fill:#4C721D;}
	.st3{fill:url(#SVGID_2_);}
	.st4{fill:url(#SVGID_3_);}
	.st5{fill:#484321;}
</style>
<g>
	<path class="st0" d="M49.8,30.9c0,16.4-8.1,19.9-8.1,19.9s19.7,18,19.7,39.8c0,17.9-9.9,31.2-29.1,31.2S0.2,109.2,0,90.7
		c-0.3-24.5,20.1-39.9,20.1-39.9l4.2,7.8c0,0-5,19.8,4.4,19c8-0.6-2.4-16.8-2.4-16.8C22.5,53.7,14,44.6,14,30.9
		C14,14.8,29.9,0,31.8,0C33.6,0,49.8,11.9,49.8,30.9z M36.6,44.3c0,0,3.8-14.4-3.2-12.5c-3.9,1.1,0,7.6,0,7.6L36.6,44.3z"/>
	
		<linearGradient id="SVGID_1_" gradientUnits="userSpaceOnUse" x1="0" y1="1.218632e-008" x2="1" y2="1.218632e-008" gradientTransform="matrix(-14.1679 -91.8623 -91.8623 14.1679 45.6194 114.8024)">
		<stop  offset="0" style="stop-color:#B1BD21"/>
		<stop  offset="1" style="stop-color:#5D8828"/>
	</linearGradient>
	<path class="st1" d="M30.5,22.6c0,0,1.6-0.6,1.6,1.4c0,1.5,0,2.1,0,2.1s0,0.6-1,1.2c-1.4,0.8-6.7,5-6.2,10.1
		c0.4,4.4,4.3,10.9,12.5,20.3c7.9,9.1,21.3,29.2,20.9,38.5c-0.3,8.4-3.6,13-9.4,16.8c-4.2,2.8-6.7,2.5-6.7,2.5s-1.7-0.1-0.4-1.6
		c1.3-1.5,5.6-6.2,5.4-14.9c-0.3-9.5-14.7-31.9-14.7-31.9S18.2,46.3,18.2,39C18.2,26.7,30.5,22.6,30.5,22.6z"/>
	<path class="st2" d="M33.7,31.7c0,0-5.3,0.1,3,12.5c0,0-1.3,3.6-3.6,5.9c-2.7,2.9,3.4,2.2,4.8,2c2.2-0.3,3.8-1.4,3.8-1.4
		c4.4,4.4,5.7,6,11,13.9c0,0-6.6-9.3-13.5-11.2c-2.1-0.6-7,0.9-7.8-0.6c-0.8-1.5,2.9-4,3.6-5.3C35.6,46.6,27.7,32.8,33.7,31.7z"/>
	
		<linearGradient id="SVGID_2_" gradientUnits="userSpaceOnUse" x1="0" y1="8.694769e-010" x2="1" y2="8.694769e-010" gradientTransform="matrix(6.1756 50.5406 50.5406 -6.1756 36.8575 3.1336)">
		<stop  offset="0" style="stop-color:#B1BD21"/>
		<stop  offset="1" style="stop-color:#5D8828"/>
	</linearGradient>
	<path class="st3" d="M48.9,32.1c0,9-3.6,17.1-8.8,19.1c-2.2,0.8-6.2,1.1-6.1,0.1c0.1-2,2.6,0.7,5.6-1.8c2.4-2.1,5.2-7.9,4.5-15.3
		c-0.9-11.6-8-16.2-9.2-17c-1-0.7-2.4-0.8-2.6-2.6c-0.3-3-0.6-8.7-0.6-8.7s-0.2-3.1,2.2-1.6C36.3,5.8,48.9,14.2,48.9,32.1z"/>
	
		<linearGradient id="SVGID_3_" gradientUnits="userSpaceOnUse" x1="0" y1="1.645276e-008" x2="1" y2="1.645276e-008" gradientTransform="matrix(5.2599 62.2109 62.2109 -5.2599 21.9795 53.9258)">
		<stop  offset="0" style="stop-color:#B1BD21"/>
		<stop  offset="1" style="stop-color:#5D8828"/>
	</linearGradient>
	<path class="st4" d="M21.2,53.2c0,0,0.1,0.3,1.3,1.3l1.1,2c0,0,0.6,0.6,0.3,1.1c-0.6,1.3-11.5,31,6.1,29.8c0,0,3.1-0.2,4.9-2.8
		c0.9-1.3,1.9-2.6,2.5,0c0.6,2.9,6.8,20-5,29.8C23.1,122.1-2.5,108.7,21.2,53.2z"/>
	<path class="st2" d="M27.3,62.2c0,0,18,26.7,18.3,36.2c0.3,13.3-9.9,19.8-17.1,20.7c4.1-0.5,11-8.3,12.4-17.9
		C43,86.5,27.3,62.2,27.3,62.2z"/>
	<path class="st2" d="M27.3,62.2c0,0,9.4,15.4,1,15.2c-8.4-0.2-4.5-17-4-18.9c0,0-6.4,20-0.8,25c4.9,4.3,10,1.9,11-1.9
		C35.6,77.9,36.2,75.8,27.3,62.2z"/>
	<polygon class="st2" points="20.1,50.7 20.1,50.7 23.7,61.5 24.7,58.1 	"/>
	<path class="st5" d="M608.6,67.5c-1-3.9-3.8-4.9-8.1-3.1c-4.4,3.3-8.4,4.4-12,3.3c-3.6-1.1-5.7-3.1-6.3-6.2h13.7
		c2.8-1,4.3-2.9,4.3-5.7c0-2.7-1.4-4.4-4.2-5.1l-13.7,0c0.2-3.5,2.3-5.6,6-6.5c3.8-0.9,7.6-0.2,11.4,2.2c4,1.2,6.6,0,7.9-3.6
		c1.3-3.5-0.6-6.4-5.6-8.6c-5-2.2-10.8-2.3-17.5-0.4c-6.7,1.9-11.2,6.5-13.7,13.8c-2.5,7.2-2.2,13.9,0.7,20.1
		c2.9,6.2,7.6,9.9,14.1,11.3c6.5,1.4,12.2,0.7,17.1-1.8S609.7,71.4,608.6,67.5z M564.6,19.9v54.3c-0.7,3.6-2.8,5.3-6.3,5.3
		s-5.6-1.9-6.2-5.6l0-54c0.4-3.5,2.5-5.3,6.2-5.4C561.9,14.6,564.1,16.3,564.6,19.9z M546.8,37.6v36.6c-0.7,3.6-2.8,5.3-6.3,5.3
		s-5.6-1.9-6.2-5.6V37.6c0.4-3.5,2.4-5.3,6.2-5.4C544.2,32.2,546.3,34,546.8,37.6z M547.5,22.1c0,4.8-2.3,7.3-6.8,7.3
		c-4.5,0-6.7-2.5-6.7-7.5c0-5,2.2-7.4,6.8-7.3C545.3,14.7,547.6,17.2,547.5,22.1z M500,46.5v18c3.5,3.2,7.2,4.3,11.2,3.2
		c3.9-1.1,6.5-3,7.6-6c1.1-2.9,1.4-6.1,0.8-9.7c-0.5-3.6-2.8-6-6.7-7.4C509,43.3,504.7,43.9,500,46.5z M499.4,17.7l0.1,17.3
		c4.3-2.6,9.6-3.3,16.1-1.9c6.5,1.3,11.1,5.5,13.8,12.6c2.7,7.1,2.3,14.3-1.3,21.6c-3.6,7.3-8.8,11.3-15.6,11.9
		c-6.8,0.7-11.2-0.3-13.2-2.9c-1.1,2.3-3.2,3.3-6.3,3.1c-3.1-0.2-4.9-1.3-5.5-3.4l0.1-57.8c0.8-2.2,2.7-3.4,5.7-3.5
		C496.4,14.5,498.4,15.5,499.4,17.7z M454,55c-0.1,7.3,3.1,10.9,9.6,10.7s9.6-4,9.2-11.2s-3.5-10.8-9.6-10.7
		C457.1,43.9,454.1,47.6,454,55z M484,49.9c1.3,11.2-0.4,18.9-5,23.2c-4.7,4.3-9.9,6.4-15.5,6.5c-5.7,0-10.7-2.1-15.2-6.3
		c-4.5-4.2-6.1-12-4.9-23.2s8-16.9,20.3-16.9C475.9,33.1,482.7,38.7,484,49.9z M387.8,36.8c2.7-2.7,6.5-4,11.4-3.9
		c4.9,0.2,8.3,2,10.4,5.4c5-4.6,11-6.3,18.1-5c7.1,1.3,11,6.2,11.6,14.8l0.1,25.4c-0.3,3.7-2.3,5.6-5.8,5.7
		c-3.5,0.1-5.6-1.7-6.2-5.4l0.1-25.8c-0.7-3.1-3-4.7-6.8-4.7c-3.8,0-6.1,1.7-6.9,5.2l0.2,25.6c-0.5,3.5-2.6,5.2-6.2,5.3
		c-3.6,0.1-5.7-1.6-6.2-4.8l0.1-25.9c-0.8-3.2-3.2-4.8-7.2-4.8c-4,0-6.3,1.6-6.7,4.9l0,26.1c0,2.9-2,4.3-6.1,4.5
		c-4.1,0.1-6.2-1.6-6.3-5.2l-0.1-36.8c0.6-2.8,2.8-4.3,6.5-4.3C385.3,32.9,387.4,34.2,387.8,36.8z M326.2,67.7
		c3.1,2.5,8.2,2.3,15.3-0.8v-6c-7.5-2.9-12.7-3.1-15.6-0.7C323,62.7,323,65.2,326.2,67.7z M333.4,33c5.9-0.4,10.6,0.7,14.2,3.4
		c3.6,2.7,5.6,6.2,6,10.4l-0.2,26.7c0.2,3.6-1.7,5.6-5.6,5.8c-3.9,0.2-6.1-0.9-6.4-3.5c-1.4,2.3-5.5,3.4-12.1,3.3
		c-6.6-0.2-11.2-1.8-13.8-4.8c-2.6-3-3.6-7.2-2.9-12.6c0.7-5.3,4.1-9,10.1-11.1c6-2.1,12.4-1.6,19.1,1.5c1-4.8-1.2-7.3-6.5-7.5
		c-5.3-0.2-9.8,0.6-13.3,2.4c-3.5,1.8-5.9,1-7.2-2.4c-1.2-3.4,0.1-6.1,4-8.1C322.6,34.6,327.5,33.4,333.4,33z M280.4,44l0,9.7
		c8.2,2,12.2,0.2,12.1-5.3C292.4,42.9,288.4,41.5,280.4,44z M280.2,34.9c9.8-3.7,16.8-2.8,21,2.7c4.2,5.5,4.5,11.5,0.8,18
		c-1.5,2.6-3.9,4.2-7.1,4.9c2.8,1.2,5.6,3.9,8.4,8.3l6.8,9.3c3.9,4,6.5,6.5,7.9,7.6c1.4,1.1,2,2.7,2,4.8c-0.1,2.1-0.8,3.6-2.3,4.5
		c-1.4,0.9-3.2,1.2-5.3,0.9c-2.1-0.3-4.8-2.4-8-6.2l-4-5.7c-4-5.2-7.6-9.7-10.6-13.7s-6-5.7-8.8-5.2v10.4c-0.6,2.3-2.7,3.5-6.5,3.4
		c-3.8,0-5.7-1.6-5.8-4.6V36.3c-0.4-2.6,1.3-4,5.2-4.1C277.6,32.1,279.7,33,280.2,34.9z M237.1,67.7c3.1,2.5,8.2,2.3,15.3-0.8v-6
		c-7.5-2.9-12.7-3.1-15.6-0.7C233.9,62.7,234,65.2,237.1,67.7z M244.3,33c5.9-0.4,10.6,0.7,14.2,3.4c3.6,2.7,5.6,6.2,6,10.4
		l-0.2,26.7c0.2,3.6-1.7,5.6-5.6,5.8c-3.9,0.2-6.1-0.9-6.4-3.5c-1.4,2.3-5.5,3.4-12.1,3.3c-6.6-0.2-11.2-1.8-13.8-4.8
		c-2.6-3-3.6-7.2-2.9-12.6c0.7-5.3,4.1-9,10.1-11.1c6-2.1,12.4-1.6,19.1,1.5c1-4.8-1.2-7.3-6.5-7.5c-5.3-0.2-9.8,0.6-13.3,2.4
		c-3.5,1.8-5.9,1-7.2-2.4c-1.2-3.4,0.1-6.1,4-8.1S238.5,33.4,244.3,33z M190.5,18.6l0,19.2c4.6-3.9,9.3-5.6,14.1-5.2
		c4.8,0.5,8.6,2.3,11.3,5.4c2.7,3.2,4.3,7.3,4.9,12.4c0.6,5.1-1,11.3-4.9,18.7c-3.9,7.3-4.5,12.8-1.8,16.3c2.7,3.5,3.7,6.5,2.9,9
		c-0.7,2.5-2.6,3.7-5.7,3.6c-3-0.1-5.7-2.3-8-6.5c-2.3-4.3-3.1-9-2.3-14.2c0.8-5.2,2.4-9.9,4.7-14.3c2.3-4.3,3.1-8.6,2.3-12.8
		c-0.8-4.2-3.8-6.2-9.1-6c-5.3,0.2-8.1,2-8.5,5.2l0,25.5c0,2.8-2,4.3-6.1,4.4c-4.1,0.1-6.2-1.6-6.3-5.1l-0.1-55.5
		c0.3-2.9,2.4-4.4,6.2-4.4C187.9,14.4,190,15.8,190.5,18.6z M145.6,67.7c3.1,2.5,8.2,2.3,15.3-0.8v-6c-7.5-2.9-12.7-3.1-15.6-0.7
		C142.4,62.7,142.5,65.2,145.6,67.7z M152.9,33c5.9-0.4,10.6,0.7,14.2,3.4c3.6,2.7,5.6,6.2,6,10.4l-0.2,26.7
		c0.2,3.6-1.7,5.6-5.6,5.8c-3.9,0.2-6.1-0.9-6.4-3.5c-1.4,2.3-5.5,3.4-12.1,3.3c-6.6-0.2-11.2-1.8-13.8-4.8c-2.6-3-3.6-7.2-2.9-12.6
		c0.7-5.3,4.1-9,10.1-11.1c6-2.1,12.4-1.6,19.1,1.5c1-4.8-1.2-7.3-6.5-7.5c-5.3-0.2-9.8,0.6-13.3,2.4c-3.5,1.8-5.9,1-7.2-2.4
		c-1.2-3.4,0.1-6.1,4-8.1S147,33.4,152.9,33z M77.2,36.8c2.7-2.7,6.5-4,11.4-3.9c4.8,0.2,8.3,2,10.4,5.4c5-4.6,11-6.3,18.1-5
		c7.1,1.3,11,6.2,11.6,14.8l0.1,25.4c-0.3,3.7-2.3,5.6-5.8,5.7c-3.5,0.1-5.6-1.7-6.2-5.4l0.1-25.8c-0.7-3.1-3-4.7-6.8-4.7
		c-3.8,0-6.1,1.7-6.9,5.2l0.2,25.6c-0.5,3.5-2.6,5.2-6.2,5.3c-3.6,0.1-5.7-1.6-6.2-4.8l0.1-25.9c-0.8-3.2-3.2-4.8-7.2-4.8
		c-4,0-6.3,1.6-6.7,4.9l0,26.1c0,2.9-2,4.3-6.1,4.5c-4.1,0.1-6.2-1.6-6.3-5.2l-0.1-36.8c0.6-2.8,2.8-4.3,6.5-4.3
		C74.7,32.9,76.8,34.2,77.2,36.8z"/>
</g>
</svg>
