<?xml version="1.0" encoding="utf-8"?>
<!-- Generator: Adobe Illustrator 20.0.0, SVG Export Plug-In . SVG Version: 6.00 Build 0)  -->
<svg version="1.1"
	 id="Layer_1" inkscape:version="0.48.4 r9939" sodipodi:docname="add.svg" xmlns:cc="http://creativecommons.org/ns#" xmlns:dc="http://purl.org/dc/elements/1.1/" xmlns:inkscape="http://www.inkscape.org/namespaces/inkscape" xmlns:rdf="http://www.w3.org/1999/02/22-rdf-syntax-ns#" xmlns:sodipodi="http://sodipodi.sourceforge.net/DTD/sodipodi-0.dtd" xmlns:svg="http://www.w3.org/2000/svg"
	 xmlns="http://www.w3.org/2000/svg" xmlns:xlink="http://www.w3.org/1999/xlink" x="0px" y="0px" viewBox="0 0 595.3 841.9"
	 style="enable-background:new 0 0 595.3 841.9;" xml:space="preserve">
<style type="text/css">
	.st0{fill:#72CF00;}
</style>
<sodipodi:namedview  bordercolor="#666666" borderopacity="1" gridtolerance="10" guidetolerance="10" id="namedview39" inkscape:current-layer="g5" inkscape:cx="123.9" inkscape:cy="53.6" inkscape:pageopacity="0" inkscape:pageshadow="2" inkscape:window-height="759" inkscape:window-maximized="0" inkscape:window-width="1249" inkscape:window-x="167" inkscape:window-y="114" inkscape:zoom="4" objecttolerance="10" pagecolor="#ffffff" showgrid="false">
	</sodipodi:namedview>
<g>
	<g>
		<path class="st0" d="M329,604.6c-12.6-4.4-23.1-6.7-31.4-6.7c-8.3,0-18.7,2.2-31.4,6.7c-12.6,4.4-18.9,9.9-18.9,16.4
			c0,4,7.4,13.5,22.1,28.3c14.7,14.9,24.1,22.3,28.2,22.3c4,0,13.4-7.4,28.2-22.3c14.7-14.9,22.1-24.3,22.1-28.3
			C348,614.5,341.6,609,329,604.6z M368.3,494.9c-23.8-8.9-47.4-13.3-70.6-13.3c-23.2,0-46.8,4.4-70.6,13.3
			c-23.8,8.9-43.6,21.1-59.4,36.7c-2,2-3,4.3-3,7c0,3.6,7.6,13,22.9,28.2c15.3,15.2,24.7,22.7,28.3,22.7c0.6,0,4.7-2.5,12.3-7.6
			c7.6-5,17.8-10.1,30.6-15.2c12.8-5,25.8-7.6,38.9-7.6c13.1,0,26.1,2.5,38.9,7.6c12.8,5.1,23.1,10.1,30.8,15.2
			c7.7,5.1,11.7,7.6,12.1,7.6c3.6,0,13.1-7.6,28.3-22.7c15.3-15.2,22.9-24.6,22.9-28.2c0-2.6-1-4.9-3-7
			C411.9,516,392.1,503.8,368.3,494.9z M592.2,367c-37.8-37.6-82.7-66.7-134.9-87.3c-52.1-20.6-105.4-30.9-159.7-30.9
			c-54.4,0-107.6,10.3-159.7,30.9C85.8,300.3,40.8,329.4,3,367c-2,2-3,4.3-3,7c0,3.6,7.6,13,22.9,28.2c15.3,15.2,24.6,22.7,28,22.7
			c2.2,0,4.4-0.9,6.7-2.7c36.2-31.7,73.7-55.6,112.6-71.7c38.9-16.1,81.4-24.1,127.5-24.1s88.6,8,127.5,24.1
			c38.9,16.1,76.4,40,112.6,71.7c2.2,1.8,4.4,2.7,6.7,2.7c3.4,0,12.8-7.6,28-22.7c15.3-15.2,22.9-24.6,22.9-28.2
			C595.3,371.3,594.3,369,592.2,367z M412.8,387.3c-38-14.7-76.4-22.1-115.2-22.1s-77.2,7.4-115.2,22.1c-38,14.8-70.3,35.5-97,62.1
			c-2,2-3,4.2-3,6.7c0,3.6,7.6,13,22.7,28.2c15.2,15.2,24.4,22.7,27.9,22.7c0.4,0,3.5-2.2,9.4-6.7c5.9-4.4,13.8-9.8,23.9-16.1
			c10.1-6.3,21.6-12.5,34.4-18.8c12.8-6.3,27.9-11.6,45.2-16.1c17.3-4.4,34.5-6.7,51.7-6.7c30.7,0,57.8,5,81.2,15
			c23.4,10,48.9,25.6,76.4,46.8c2.4,1.6,4.7,2.4,7,2.4c3.4,0,12.7-7.6,27.9-22.7c15.2-15.2,22.7-24.6,22.7-28.2c0-2.4-1-4.6-3-6.7
			C483.1,422.7,450.8,402,412.8,387.3z"/>
	</g>
</g>
</svg>
