<?xml version="1.0" encoding="UTF-8" standalone="no"?>
<!-- Generator: Adobe Illustrator 20.0.0, SVG Export Plug-In . SVG Version: 6.00 Build 0)  -->

<svg
   xmlns:dc="http://purl.org/dc/elements/1.1/"
   xmlns:cc="http://creativecommons.org/ns#"
   xmlns:rdf="http://www.w3.org/1999/02/22-rdf-syntax-ns#"
   xmlns:svg="http://www.w3.org/2000/svg"
   xmlns="http://www.w3.org/2000/svg"
   xmlns:sodipodi="http://sodipodi.sourceforge.net/DTD/sodipodi-0.dtd"
   xmlns:inkscape="http://www.inkscape.org/namespaces/inkscape"
   version="1.1"
   id="Layer_1"
   x="0px"
   y="0px"
   viewBox="0 0 23 23"
   xml:space="preserve"
   inkscape:version="0.48.4 r9939"
   width="100%"
   height="100%"
   sodipodi:docname="pending.svg"><metadata
     id="metadata43"><rdf:RDF><cc:Work
         rdf:about=""><dc:format>image/svg+xml</dc:format><dc:type
           rdf:resource="http://purl.org/dc/dcmitype/StillImage" /><dc:title /></cc:Work></rdf:RDF></metadata><defs
     id="defs41" /><sodipodi:namedview
     pagecolor="#ffffff"
     bordercolor="#666666"
     borderopacity="1"
     objecttolerance="10"
     gridtolerance="10"
     guidetolerance="10"
     inkscape:pageopacity="0"
     inkscape:pageshadow="2"
     inkscape:window-width="1249"
     inkscape:window-height="759"
     id="namedview39"
     showgrid="false"
     inkscape:zoom="4"
     inkscape:cx="123.9"
     inkscape:cy="53.6"
     inkscape:window-x="164"
     inkscape:window-y="183"
     inkscape:window-maximized="0"
     inkscape:current-layer="Layer_1" /><style
     type="text/css"
     id="style3">
	.st0{fill:#FFFFFF;}
</style><g
     transform="matrix(0.73170732,0,0,0.85416667,-65.262195,-161.13333)"
     id="g5"
     style="fill:#4d4d4d"><path
       inkscape:connector-curvature="0"
       class="st0"
       d="m 99.2,208.4 c 0.5,-1.3 1.1,-2.3 1.9,-3.2 0.8,-0.9 1.7,-1.5 2.6,-1.9 h 3.1 c 0.9,0.4 1.8,1 2.6,1.9 0.8,0.9 1.5,2 1.9,3.2 H 99.2 z M 111,197.3 H 99.6 c -0.8,-1.6 -1.1,-3.3 -1.1,-5.1 h 13.7 c -0.1,1.8 -0.4,3.5 -1.2,5.1 z m 4.1,-5.2 c 0.1,0 0.2,0 0.3,-0.1 0.1,-0.1 0.1,-0.2 0.1,-0.3 v -0.9 c 0,-0.1 0,-0.2 -0.1,-0.3 -0.1,-0.1 -0.2,-0.1 -0.3,-0.1 H 95.4 c -0.1,0 -0.2,0 -0.3,0.1 -0.1,0.1 -0.1,0.2 -0.1,0.3 v 0.9 c 0,0.1 0,0.2 0.1,0.3 0.1,0.1 0.2,0.1 0.3,0.1 h 1.3 c 0,2.3 0.5,4.4 1.4,6.2 0.9,1.8 2.1,3.2 3.6,4.1 -1.4,0.9 -2.6,2.3 -3.6,4.1 -1,1.8 -1.4,3.9 -1.4,6.2 h -1.3 c -0.1,0 -0.2,0 -0.3,0.1 -0.1,0.1 -0.1,0.2 -0.1,0.3 v 0.9 c 0,0.1 0,0.2 0.1,0.3 0.1,0.1 0.2,0.1 0.3,0.1 h 19.7 c 0.1,0 0.2,0 0.3,-0.1 0.1,-0.1 0.1,-0.2 0.1,-0.3 v -0.9 c 0,-0.1 0,-0.2 -0.1,-0.3 -0.1,-0.1 -0.2,-0.1 -0.3,-0.1 h -1.3 c 0,-2.3 -0.5,-4.4 -1.4,-6.2 -1,-1.8 -2.1,-3.2 -3.6,-4.1 1.4,-0.9 2.6,-2.3 3.6,-4.1 1,-1.8 1.4,-3.9 1.4,-6.2 h 1.3 z"
       id="path7"
       style="fill:#4d4d4d" /></g></svg>